<svg id="eUe4z2iCxrV1" xmlns="http://www.w3.org/2000/svg" xmlns:xlink="http://www.w3.org/1999/xlink" viewBox="0 0 24 24" shape-rendering="geometricPrecision" text-rendering="geometricPrecision"><defs><linearGradient id="eUe4z2iCxrV2-fill" x1="0.500012" y1="0" x2="0.500012" y2="1" spreadMethod="pad" gradientUnits="objectBoundingBox" gradientTransform="translate(0 0)"><stop id="eUe4z2iCxrV2-fill-0" offset="0%" stop-color="#0ff"/><stop id="eUe4z2iCxrV2-fill-1" offset="100%" stop-color="#7200cc"/></linearGradient></defs><path d="M14.5,24c-.271718.0004-.538359-.07361-.771-.214l-5-3c-.45202-.270857-.728759-.759041-.729-1.286v-5.165l-5.966-7.3C1.362249,6.264408,0.994611,5.275268,1,4.253C1.002755,1.905275,2.905275,0.002755,5.253,0h13.494c1.674619.00061,3.193079.983645,3.879108,2.511295s.411975,3.315658-.700108,4.567705L16,14.382v8.118c0,.828427-.671573,1.5-1.5,1.5ZM11,18.65l2,1.2v-6c-.00026-.344443.118031-.678482.335-.946L19.64,5.137c.226984-.238854.355538-.554526.36-.884-.001101-.691556-.561444-1.251899-1.253-1.253L5.253,3c-.493321.000487-.940523.29017-1.14266.740177s-.121648.976722.20566,1.345823l6.346,7.765c.218698.26791.338103.603161.338.949Z" fill="url(#eUe4z2iCxrV2-fill)"/></svg>
