<svg id="eMJnyt8BP751" xmlns="http://www.w3.org/2000/svg" xmlns:xlink="http://www.w3.org/1999/xlink" viewBox="0 0 24 24" shape-rendering="geometricPrecision" text-rendering="geometricPrecision"><defs><linearGradient id="eMJnyt8BP752-fill" x1="0.5" y1="0.000229" x2="0.5" y2="1" spreadMethod="pad" gradientUnits="objectBoundingBox" gradientTransform="translate(0 0)"><stop id="eMJnyt8BP752-fill-0" offset="0%" stop-color="#0ff"/><stop id="eMJnyt8BP752-fill-1" offset="100%" stop-color="#7200cc"/></linearGradient></defs><path d="M22,5.644L22,2.5c0-.829-.672-1.5-1.5-1.5s-1.5.671-1.5,1.5v1.089L15.076,0.941c-1.869-1.262-4.283-1.262-6.152,0l-6.5,4.386C0.906,6.351,0,8.055,0,9.886v8.614C0,21.533,2.468,24,5.5,24h3c.828,0,1.5-.671,1.5-1.5v-8c0-.276.225-.5.5-.5h3c.275,0,.5.224.5.5v8c0,.829.672,1.5,1.5,1.5h3c3.032,0,5.5-2.467,5.5-5.5v-8.614c0-1.654-.739-3.204-2-4.242ZM21,18.5c0,1.378-1.121,2.5-2.5,2.5h-1.5v-6.5c0-1.93-1.57-3.5-3.5-3.5h-3C8.57,11,7,12.57,7,14.5v6.5h-1.5C4.121,21,3,19.878,3,18.5v-8.614c0-.833.412-1.607,1.102-2.073l6.5-4.386c.85-.573,1.947-.573,2.797,0l6.5,4.387c.689.465,1.102,1.24,1.102,2.072v8.614Z" fill="url(#eMJnyt8BP752-fill)"/></svg>
