<svg id="eNdQZAPrERX1" xmlns="http://www.w3.org/2000/svg" xmlns:xlink="http://www.w3.org/1999/xlink" viewBox="0 0 24 24" shape-rendering="geometricPrecision" text-rendering="geometricPrecision"><defs><linearGradient id="eNdQZAPrERX2-fill" x1="0.5" y1="0.187495" x2="0.5" y2="0.812505" spreadMethod="pad" gradientUnits="objectBoundingBox" gradientTransform="translate(0 0)"><stop id="eNdQZAPrERX2-fill-0" offset="0%" stop-color="#0ff"/><stop id="eNdQZAPrERX2-fill-1" offset="100%" stop-color="#7200cc"/></linearGradient><linearGradient id="eNdQZAPrERX3-fill" x1="0.539982" y1="0" x2="0.539982" y2="1" spreadMethod="pad" gradientUnits="objectBoundingBox" gradientTransform="translate(0 0)"><stop id="eNdQZAPrERX3-fill-0" offset="0%" stop-color="#0ff"/><stop id="eNdQZAPrERX3-fill-1" offset="100%" stop-color="#7200cc"/></linearGradient></defs><path d="M18.589,0L5.411,0C2.449677,-0.022198,0.029139,2.356737,0,5.318v1.864c0,.828427.671573,1.5,1.5,1.5s1.5-.671573,1.5-1.5v-1.864C3.027888,4.013089,4.106002,2.976562,5.411,3h13.178C19.893998,2.976562,20.972112,4.013089,21,5.318v13.364c-.027888,1.304911-1.106002,2.341438-2.411,2.318h-13.178C4.106002,21.023438,3.027888,19.986911,3,18.682v-1.864c0-.828427-.671573-1.5-1.5-1.5s-1.5.671573-1.5,1.5v1.864C0.029139,21.643263,2.449677,24.022198,5.411,24h13.178c2.961323.022198,5.381861-2.356737,5.411-5.318v-13.364C23.970861,2.356737,21.550323,-0.022198,18.589,0Z" fill="url(#eNdQZAPrERX2-fill)"/><path d="M3.5,12c0,.828427.671573,1.5,1.5,1.5v0l9.975-.027-3.466,3.466c-.585974.585698-.586198,1.535526-.0005,2.1215s1.535526.586198,2.1215.0005l4.586-4.586c.656455-.656388,1.025253-1.54668,1.025253-2.475s-.368798-1.818612-1.025253-2.475L13.634,4.939c-.585974-.585698-1.535802-.585474-2.1215.0005s-.585474,1.535802.0005,2.1215l3.413,3.412L5,10.5c-.828427,0-1.5.671573-1.5,1.5Z" fill="url(#eNdQZAPrERX3-fill)"/></svg>
