<svg id="ea2xGPQNzwi1" xmlns="http://www.w3.org/2000/svg" xmlns:xlink="http://www.w3.org/1999/xlink" viewBox="0 0 24 24" shape-rendering="geometricPrecision" text-rendering="geometricPrecision"><defs><linearGradient id="ea2xGPQNzwi2-fill" x1="0.5" y1="0" x2="0.499955" y2="1" spreadMethod="pad" gradientUnits="objectBoundingBox" gradientTransform="translate(0 0)"><stop id="ea2xGPQNzwi2-fill-0" offset="0%" stop-color="#0ff"/><stop id="ea2xGPQNzwi2-fill-1" offset="100%" stop-color="#7200cc"/></linearGradient></defs><path d="M15.707,11.707L13.414,14l2.293,2.293c.391.391.391,1.023,0,1.414-.195.195-.451.293-.707.293s-.512-.098-.707-.293L12,15.414L9.707,17.707C9.512,17.902,9.256,18,9,18s-.512-.098-.707-.293c-.391-.391-.391-1.023,0-1.414L10.586,14L8.293,11.707c-.391-.391-.391-1.023,0-1.414s1.023-.391,1.414,0L12,12.586l2.293-2.293c.391-.391,1.023-.391,1.414,0s.391,1.023,0,1.414ZM23,5c0,.553-.448,1-1,1h-.885L19.839,19.472C19.594,22.053,17.454,24,14.861,24h-5.727c-2.589,0-4.729-1.943-4.977-4.521L2.861,6h-.86c-.552,0-1-.447-1-1s.448-1,1-1h4.101c.465-2.279,2.485-4,4.899-4h2c2.414,0,4.435,1.721,4.899,4h4.101c.552,0,1,.447,1,1ZM8.172,4h7.656C15.415,2.836,14.304,2,13,2h-2c-1.304,0-2.415.836-2.828,2ZM19.106,6L4.87,6L6.148,19.287C6.296,20.834,7.58,22,9.134,22h5.727c1.556,0,2.84-1.168,2.987-2.718L19.106,6Z" fill="url(#ea2xGPQNzwi2-fill)"/></svg>
