<svg id="eN8JZprgk5d1" xmlns="http://www.w3.org/2000/svg" xmlns:xlink="http://www.w3.org/1999/xlink" viewBox="0 0 512 512" shape-rendering="geometricPrecision" text-rendering="geometricPrecision"><defs><linearGradient id="eN8JZprgk5d3-fill" x1="0.957041" y1="0.829782" x2="0.979002" y2="0.065788" spreadMethod="pad" gradientUnits="objectBoundingBox" gradientTransform="translate(0 0)"><stop id="eN8JZprgk5d3-fill-0" offset="0%" stop-color="#0ff"/><stop id="eN8JZprgk5d3-fill-1" offset="100%" stop-color="#7200cc"/></linearGradient><linearGradient id="eN8JZprgk5d4-fill" x1="0.957041" y1="0.829782" x2="0.979002" y2="0.065788" spreadMethod="pad" gradientUnits="objectBoundingBox" gradientTransform="translate(0 0)"><stop id="eN8JZprgk5d4-fill-0" offset="0%" stop-color="#0ff"/><stop id="eN8JZprgk5d4-fill-1" offset="100%" stop-color="#7200cc"/></linearGradient><linearGradient id="eN8JZprgk5d5-fill" x1="0.957041" y1="0.829782" x2="0.979002" y2="0.065788" spreadMethod="pad" gradientUnits="objectBoundingBox" gradientTransform="translate(0 0)"><stop id="eN8JZprgk5d5-fill-0" offset="0%" stop-color="#0ff"/><stop id="eN8JZprgk5d5-fill-1" offset="100%" stop-color="#7200cc"/></linearGradient></defs><g style="mix-blend-mode:overlay" transform="matrix(.1 0 0-.1 0 512)"><path d="M2252,4836c-588-112-998-624-969-1211c31-628,543-1115,1172-1115c263,0,495,78,707,238c319,240,500,650,458,1037-54,509-391,904-879,1032-120,31-371,41-489,19Zm376-322c247-51,468-220,581-445c72-145,93-233,93-389s-21-244-93-389c-114-227-336-395-588-446-112-23-294-16-401,15-220,63-411,218-519,421-266,501,20,1110,579,1235c80,18,257,17,348-2Z" fill="url(#eN8JZprgk5d3-fill)"/><path d="M3686,2500c-41-13-94-68-106-110-5-19-10-85-10-147v-111l-67-22c-38-13-94-36-126-53l-58-30-87,85c-100,99-118,110-177,110-91,0-157-66-157-157c0-59,11-77,110-177l85-87-30-58c-17-32-40-88-53-125l-22-68h-111c-62,0-128-5-149-10-49-14-104-76-113-129s25-126,74-158c31-21,46-23,167-23h133l16-58c9-31,33-90,52-130l36-73-91-92c-98-99-116-136-101-206c20-96,132-149,223-106c17,8,69,53,114,98l83,83l73-37c40-20,96-42,124-50l52-13v-121c0-105,3-126,23-165c41-83,130-113,213-74c67,32,78,62,84,217l5,139l72,23c40,12,96,36,126,53l54,30l84-85c46-47,98-91,116-99c133-57,266,76,209,209-8,18-52,70-99,116l-85,84l30,54c17,30,41,86,53,126l23,72l139,5c155,6,185,17,217,84c39,83,9,172-74,214-39,19-60,22-165,22h-121l-13,52c-8,28-30,84-50,124l-37,73l83,83c45,45,90,97,98,114c43,91-10,203-106,223-70,15-107-3-206-101l-92-91-73,36c-40,19-99,43-130,52l-58,16v133c0,121-2,136-23,167-23,36-97,80-132,78-11,0-33-5-49-9Zm227-712c65-31,165-121,201-182c67-115,75-278,19-399-44-93-118-169-211-214-64-32-85-37-161-41-147-7-243,31-343,136-90,94-120,172-120,304c1,184,101,329,279,404c52,22,70,24,168,22c94-3,118-7,168-30Z" fill="url(#eN8JZprgk5d4-fill)"/><path d="M2160,2313c-235-18-509-64-725-124-650-178-1077-517-1155-915-7-37-10-145-8-294c3-231,3-236,30-292c34-73,103-142,176-176l57-27l978-3c890-2,981-1,1013,14c50,24,77,68,82,133c5,70-22,115-88,149l-44,22h-931c-711,0-934,3-943,12s-12,69-12,208c0,169,3,205,19,253c83,241,429,474,898,606c248,70,508,108,792,118c207,7,246,18,289,83c30,45,28,130-6,177-38,54-73,63-234,61-78-1-163-3-188-5Z" fill="url(#eN8JZprgk5d5-fill)"/></g></svg>
