<svg id="eR2MNnESQUA1" xmlns="http://www.w3.org/2000/svg" xmlns:xlink="http://www.w3.org/1999/xlink" viewBox="66 450 281 45" shape-rendering="geometricPrecision" text-rendering="geometricPrecision"><defs><linearGradient id="eR2MNnESQUA3-stroke" x1="206.5" y1="450" x2="206.5" y2="495" spreadMethod="pad" gradientUnits="userSpaceOnUse" gradientTransform="translate(0 0)"><stop id="eR2MNnESQUA3-stroke-0" offset="0%" stop-color="#ff00b8"/><stop id="eR2MNnESQUA3-stroke-1" offset="100%" stop-color="#7200cc"/></linearGradient></defs><path d="M68.5,463c0-5.79899,4.70101-10.5,10.5-10.5h255c5.79899,0,10.5,4.70101,10.5,10.5v19c0,5.79899-4.70101,10.5-10.5,10.5h-255c-5.79899,0-10.5-4.70101-10.5-10.5v-19Z" fill="#fff" fill-opacity="0"/><path d="M67.5,463c0-6.351275,5.148725-11.5,11.5-11.5h255c6.351275,0,11.5,5.148725,11.5,11.5v19c0,6.351275-5.148725,11.5-11.5,11.5h-255c-6.351275,0-11.5-5.148725-11.5-11.5v-19Z" fill="none" stroke="url(#eR2MNnESQUA3-stroke)" stroke-width="3"/></svg>
