<svg id="eG8xBv06VZY1" xmlns="http://www.w3.org/2000/svg" xmlns:xlink="http://www.w3.org/1999/xlink" viewBox="0 0 24 24" shape-rendering="geometricPrecision" text-rendering="geometricPrecision"><defs><linearGradient id="eG8xBv06VZY2-fill" x1="0.5" y1="0" x2="0.5" y2="1.333333" spreadMethod="pad" gradientUnits="objectBoundingBox" gradientTransform="translate(0 0)"><stop id="eG8xBv06VZY2-fill-0" offset="0%" stop-color="#0ff"/><stop id="eG8xBv06VZY2-fill-1" offset="100%" stop-color="#7200cc"/></linearGradient><linearGradient id="eG8xBv06VZY3-fill" x1="0.5" y1="0" x2="0.5" y2="1.333333" spreadMethod="pad" gradientUnits="objectBoundingBox" gradientTransform="translate(0 0)"><stop id="eG8xBv06VZY3-fill-0" offset="0%" stop-color="#0ff"/><stop id="eG8xBv06VZY3-fill-1" offset="100%" stop-color="#7200cc"/></linearGradient><linearGradient id="eG8xBv06VZY4-fill" x1="0.5" y1="0" x2="0.5" y2="1.333333" spreadMethod="pad" gradientUnits="objectBoundingBox" gradientTransform="translate(0 0)"><stop id="eG8xBv06VZY4-fill-0" offset="0%" stop-color="#0ff"/><stop id="eG8xBv06VZY4-fill-1" offset="100%" stop-color="#7200cc"/></linearGradient></defs><circle r="2" transform="translate(7 22)" fill="url(#eG8xBv06VZY2-fill)"/><circle r="2" transform="translate(17 22)" fill="url(#eG8xBv06VZY3-fill)"/><path d="M22.984,6.018c-.703933-.673106-1.646274-1.039253-2.62-1.018h-14.71L5.391,2.938C5.193336,1.26289,3.773732,0.000542,2.087,0L1.5,0C0.671573,0,0,0.671573,0,1.5v0C0,2.328427,0.671573,3,1.5,3h.587c.169436.001816.31014.131298.326.3l1.5,11.759C4.108833,16.735523,5.529078,17.99973,7.217,18h10.122c2.474852-.001453,4.64394-1.655689,5.3-4.042l1.246-4.531c.33821-1.215657-.006316-2.519198-.901-3.409ZM19.75,13.163c-.300889,1.083646-1.286359,1.8345-2.411,1.837h-10.122c-.169418-.001401-.310072-.131235-.325-.3L6.037,8h14.477c.156573-.001172.304653.07107.400101.195191s.12724.285788.085899.436809Z" fill="url(#eG8xBv06VZY4-fill)"/></svg>
