<svg id="edRvFtKpHyN1" xmlns="http://www.w3.org/2000/svg" xmlns:xlink="http://www.w3.org/1999/xlink" viewBox="0 0 24 24" shape-rendering="geometricPrecision" text-rendering="geometricPrecision"><defs><linearGradient id="edRvFtKpHyN2-fill" x1="0.5" y1="0" x2="0.5" y2="1" spreadMethod="pad" gradientUnits="objectBoundingBox" gradientTransform="translate(0 0)"><stop id="edRvFtKpHyN2-fill-0" offset="0%" stop-color="#0ff"/><stop id="edRvFtKpHyN2-fill-1" offset="100%" stop-color="#7200cc"/></linearGradient></defs><path d="M16.061,10.061L14.122,12l1.939,1.939c.586.586.586,1.535,0,2.121-.293.293-.677.439-1.061.439s-.768-.146-1.061-.439L12,14.121L10.061,16.06c-.293.293-.677.439-1.061.439s-.768-.146-1.061-.439c-.586-.586-.586-1.535,0-2.121L9.878,12L7.939,10.061c-.586-.586-.586-1.535,0-2.121s1.535-.586,2.121,0l1.939,1.939L13.938,7.94c.586-.586,1.535-.586,2.121,0s.586,1.535,0,2.121ZM24,12c0,6.617-5.383,12-12,12s-12-5.383-12-12s5.383-12,12-12s12,5.383,12,12Zm-3,0c0-4.963-4.037-9-9-9s-9,4.037-9,9s4.038,9,9,9s9-4.037,9-9Z" fill="url(#edRvFtKpHyN2-fill)"/></svg>
