<svg id="ebpF6LGtUDK1" xmlns="http://www.w3.org/2000/svg" xmlns:xlink="http://www.w3.org/1999/xlink" viewBox="0 0 512 512" shape-rendering="geometricPrecision" text-rendering="geometricPrecision"><defs><linearGradient id="ebpF6LGtUDK3-fill" x1="0" y1="0.485481" x2="1.000078" y2="0.471187" spreadMethod="pad" gradientUnits="objectBoundingBox" gradientTransform="translate(0 0)"><stop id="ebpF6LGtUDK3-fill-0" offset="0%" stop-color="#0ff"/><stop id="ebpF6LGtUDK3-fill-1" offset="100%" stop-color="#7200cc"/></linearGradient><linearGradient id="ebpF6LGtUDK4-fill" x1="0" y1="0.485481" x2="1.000078" y2="0.471187" spreadMethod="pad" gradientUnits="objectBoundingBox" gradientTransform="translate(0 0)"><stop id="ebpF6LGtUDK4-fill-0" offset="0%" stop-color="#0ff"/><stop id="ebpF6LGtUDK4-fill-1" offset="100%" stop-color="#7200cc"/></linearGradient></defs><g><path d="M170.698,448h-97.941c-4.814-.012-8.714-3.911-8.725-8.725v-366.55c.012-4.814,3.911-8.714,8.725-8.725h97.941c17.673,0,32-14.327,32-32s-14.327-32-32-32h-97.941C32.611,0.047,0.079,32.58,0.032,72.725v366.549C0.079,479.42,32.611,511.953,72.757,512h97.941c17.673,0,32-14.327,32-32s-14.327-32-32-32Z" fill="url(#ebpF6LGtUDK3-fill)"/><path d="M483.914,188.117l-82.816-82.752c-12.501-12.495-32.764-12.49-45.259.011s-12.49,32.764.011,45.259l72.789,72.768L138.698,224c-17.673,0-32,14.327-32,32s14.327,32,32,32v0l291.115-.533L355.85,361.43c-12.042,12.936-11.317,33.184,1.618,45.226c12.295,11.445,31.346,11.436,43.63-.021l82.752-82.752c37.491-37.49,37.491-98.274.001-135.764c0,0-.001-.001-.001-.001l.064-.001Z" fill="url(#ebpF6LGtUDK4-fill)"/></g></svg>
