<svg id="esuEcR0BH7L1" xmlns="http://www.w3.org/2000/svg" xmlns:xlink="http://www.w3.org/1999/xlink" viewBox="0 0 24 24" shape-rendering="geometricPrecision" text-rendering="geometricPrecision"><defs><linearGradient id="esuEcR0BH7L2-fill" x1="0.711861" y1="0.304015" x2="0" y2="1" spreadMethod="pad" gradientUnits="objectBoundingBox" gradientTransform="translate(0 0)"><stop id="esuEcR0BH7L2-fill-0" offset="0%" stop-color="#0ff"/><stop id="esuEcR0BH7L2-fill-1" offset="100%" stop-color="#7200cc"/></linearGradient></defs><path d="M18,9.064c.000289-.812431-.323673-1.591381-.9-2.164-1.212878-1.157336-3.121122-1.157336-4.334,0L0.9,18.769c-1.125691,1.207047-1.092995,3.088855.073949,4.256068s3.048744,1.200344,4.256051.074932L17.1,11.231c.577254-.573225.901312-1.353485.9-2.167ZM3.816,21.688c-.419898.400254-1.080102.400254-1.5,0-.413475-.414519-.413475-1.085481,0-1.5l7.769-7.77l1.505,1.505ZM15.688,9.816L13,12.505L11.5,11l2.689-2.688c.261241-.298437.666903-.426613,1.052191-.332458s.686112.394979.780267.780267-.034021.79095-.332458,1.052191ZM4.863,2.855l1.55-.442.442-1.55c.146293-.510993.613478-.863195,1.145-.863195s.998707.352202,1.145.863195l.442,1.55l1.55.442c.510993.146293.863195.613478.863195,1.145s-.352202.998707-.863195,1.145l-1.55.442-.442,1.55c-.146293.510993-.613478.863195-1.145.863195s-.998707-.352202-1.145-.863195l-.442-1.55-1.55-.442C4.352007,4.998707,3.999805,4.531522,3.999805,4s.352202-.998707.863195-1.145Zm18.274,14.29l-1.55.442-.442,1.55c-.146293.510993-.613478.863195-1.145.863195s-.998707-.352202-1.145-.863195l-.442-1.55-1.55-.442c-.510993-.146293-.863195-.613478-.863195-1.145s.352202-.998707.863195-1.145l1.55-.442.442-1.55c.146293-.510993.613478-.863195,1.145-.863195s.998707.352202,1.145.863195l.442,1.55l1.55.442c.510993.146293.863195.613478.863195,1.145s-.352202.998707-.863195,1.145ZM17.755,2.5l1.356-.387.389-1.358c.130039-.444039.537311-.749145,1-.749145s.869961.305106,1,.749145l.387,1.356l1.356.387c.444039.130039.749145.537311.749145,1s-.305106.869961-.749145,1l-1.356.387L21.5,6.244c-.130039.444039-.537311.749145-1,.749145s-.869961-.305106-1-.749145l-.387-1.355L17.755,4.5c-.444039-.130039-.749145-.537311-.749145-1s.305106-.869961.749145-1Z" fill="url(#esuEcR0BH7L2-fill)"/></svg>
