<svg id="eNeP9HKjyiV1" xmlns="http://www.w3.org/2000/svg" xmlns:xlink="http://www.w3.org/1999/xlink" viewBox="0 0 24 24" shape-rendering="geometricPrecision" text-rendering="geometricPrecision"><defs><linearGradient id="eNeP9HKjyiV2-fill" x1="-0.043469" y1="0.999958" x2="1" y2="0" spreadMethod="pad" gradientUnits="objectBoundingBox" gradientTransform="translate(0 0)"><stop id="eNeP9HKjyiV2-fill-0" offset="0%" stop-color="#0ff"/><stop id="eNeP9HKjyiV2-fill-1" offset="100%" stop-color="#7200cc"/></linearGradient></defs><path d="M20.839,18.131v0l-.273-.227c1.577-1.951,2.435-4.365,2.435-6.903c0-.372-.019-.738-.055-1.101-.056-.55-.537-.936-1.096-.895-.549.056-.95.546-.895,1.096.03.296.045.596.045.899c0,2.232-.811,4.347-2.292,6h-13.416C3.812,15.348,3,13.233,3,11c0-4.963,4.037-9,9-9c.922,0,1.831.139,2.7.412.528.165,1.088-.129,1.254-.654.165-.526-.127-1.088-.654-1.254C14.237,0.17,13.126,0,12,0C5.935,0,1,4.935,1,11c0,2.538.857,4.952,2.435,6.903l-.274.228c-1.041.868-1.789,2.073-2.105,3.393-.145.603-.007,1.228.377,1.715.383.484.955.762,1.571.762h17.992c.616,0,1.188-.277,1.571-.762.384-.487.521-1.112.377-1.716-.316-1.318-1.064-2.523-2.105-3.392ZM3.001,21.989c.217-.903.729-1.728,1.44-2.321L5.244,19h13.512l.802.668c.713.594,1.225,1.418,1.438,2.332L3.001,21.989ZM14.824,9.176l1.418.354c.445.111.758.511.758.97s-.313.858-.758.97l-1.418.354-.354,1.418c-.111.445-.511.758-.97.758s-.858-.312-.97-.758l-.357-1.43-1.433-.385c-.443-.119-.748-.524-.74-.983.009-.459.328-.854.774-.957l1.404-.324.352-1.405c.11-.445.511-.758.97-.758s.858.312.97.758l.354,1.418Zm8.547-6.105l-1.744-.698-.698-1.744C20.777,0.249,20.409,0,20,0s-.776.249-.929.629l-.694,1.734-1.731.655c-.382.146-.638.508-.646.917s.234.781.611.94l1.758.74.702,1.755c.152.38.52.629.929.629s.776-.249.929-.629l.698-1.744l1.744-.698c.38-.152.629-.52.629-.929s-.249-.776-.629-.929Z" fill="url(#eNeP9HKjyiV2-fill)"/><rect width="2.4" height="20.953046" rx="1.2" ry="1.2" transform="matrix(-.707107 0.707107-1.113658-1.113658 24.51579 22.818733)" fill="#0ff" stroke-width="0"/></svg>
