<svg id="eHMLZQxW1u81" xmlns="http://www.w3.org/2000/svg" xmlns:xlink="http://www.w3.org/1999/xlink" viewBox="0 0 24 24" shape-rendering="geometricPrecision" text-rendering="geometricPrecision"><defs><linearGradient id="eHMLZQxW1u82-fill" x1="-0.001828" y1="1" x2="1" y2="0" spreadMethod="pad" gradientUnits="objectBoundingBox" gradientTransform="translate(0 0)"><stop id="eHMLZQxW1u82-fill-0" offset="0%" stop-color="#0ff"/><stop id="eHMLZQxW1u82-fill-1" offset="100%" stop-color="#7200cc"/></linearGradient></defs><path d="M22.853,1.148c-1.415589-1.413418-3.708411-1.413418-5.124,0L1.465,17.412c-.940747.935455-1.468258,2.208323-1.465,3.535L0,23c0,.552285.447715,1,1,1h2.053c1.326576.003746,2.599506-.523431,3.535-1.464L22.853,6.271c1.412752-1.415474,1.412752-3.707526,0-5.123ZM5.174,21.122c-.563997.560249-1.326037.8757-2.121.878L2,22v-1.053c-.002044-.796024.314476-1.559777.879-2.121L15.222,6.483l2.3,2.3ZM21.438,4.857L18.932,7.364l-2.3-2.295l2.507-2.507c.635127-.633747,1.663753-.632627,2.2975.0025s.632627,1.663753-.0025,2.2975Z" transform="translate(.043719 0)" fill="url(#eHMLZQxW1u82-fill)"/></svg>
