<svg id="eHMkAazTUCR1" xmlns="http://www.w3.org/2000/svg" xmlns:xlink="http://www.w3.org/1999/xlink" viewBox="0 0 24 24" shape-rendering="geometricPrecision" text-rendering="geometricPrecision"><defs><linearGradient id="eHMkAazTUCR2-fill" x1="0.5" y1="1" x2="0.5" y2="0" spreadMethod="pad" gradientUnits="objectBoundingBox" gradientTransform="translate(0 0)"><stop id="eHMkAazTUCR2-fill-0" offset="0%" stop-color="#0ff"/><stop id="eHMkAazTUCR2-fill-1" offset="100%" stop-color="#7200cc"/></linearGradient></defs><path d="M17,12c0,.828-.671,1.5-1.5,1.5h-2v2c0,.828-.671,1.5-1.5,1.5s-1.5-.672-1.5-1.5v-2h-2C7.671,13.5,7,12.828,7,12s.671-1.5,1.5-1.5h2v-2c0-.828.671-1.5,1.5-1.5s1.5.672,1.5,1.5v2h2c.829,0,1.5.672,1.5,1.5Zm7-6.5v13c0,3.032-2.467,5.5-5.5,5.5h-13C2.467,24,0,21.532,0,18.5v-13C0,2.468,2.467,0,5.5,0h13C21.533,0,24,2.468,24,5.5Zm-3,0C21,4.121,19.878,3,18.5,3h-13C4.122,3,3,4.121,3,5.5v13C3,19.879,4.122,21,5.5,21h13c1.378,0,2.5-1.121,2.5-2.5v-13Z" fill="url(#eHMkAazTUCR2-fill)"/></svg>
