<svg id="eNg7XmdajKB1" xmlns="http://www.w3.org/2000/svg" xmlns:xlink="http://www.w3.org/1999/xlink" viewBox="0 0 16 24" shape-rendering="geometricPrecision" text-rendering="geometricPrecision"><defs><linearGradient id="eNg7XmdajKB2-fill" x1="0.5" y1="0" x2="0.5" y2="1" spreadMethod="pad" gradientUnits="objectBoundingBox" gradientTransform="translate(0 0)"><stop id="eNg7XmdajKB2-fill-0" offset="0%" stop-color="#0ff"/><stop id="eNg7XmdajKB2-fill-1" offset="100%" stop-color="#7200cc"/></linearGradient></defs><path d="M2,6C2,2.686292,4.686292,0,8,0s6,2.686292,6,6-2.686292,6-6,6c-3.312338-.003307-5.996693-2.687662-6-6ZM5,6C5,7.656854,6.343146,9,8,9s3-1.343146,3-3-1.343146-3-3-3-3,1.343146-3,3Zm3,8c-4.416222.00496-7.99504,3.583778-8,8v.5c0,.828427.671573,1.5,1.5,1.5s1.5-.671573,1.5-1.5v-.5c0-2.761424,2.238576-5,5-5s5,2.238576,5,5v.5c0,.828427.671573,1.5,1.5,1.5s1.5-.671573,1.5-1.5v-.5c-.00496-4.416222-3.583778-7.99504-8-8Z" fill="url(#eNg7XmdajKB2-fill)"/></svg>
