<svg id="e7ZXJQjxcGC1" xmlns="http://www.w3.org/2000/svg" xmlns:xlink="http://www.w3.org/1999/xlink" viewBox="0 0 512 512" shape-rendering="geometricPrecision" text-rendering="geometricPrecision"><defs><linearGradient id="e7ZXJQjxcGC2-fill" x1="0.5" y1="0" x2="0.499585" y2="0.985291" spreadMethod="pad" gradientUnits="objectBoundingBox" gradientTransform="translate(0 0)"><stop id="e7ZXJQjxcGC2-fill-0" offset="0%" stop-color="#0ff"/><stop id="e7ZXJQjxcGC2-fill-1" offset="100%" stop-color="#7200cc"/></linearGradient></defs><path d="M512,466.928L403.624,358.552c74.164-98.987,54.041-239.353-44.945-313.517s-239.354-54.042-313.518,44.945-54.041,239.353,44.946,313.517c79.531,59.587,188.816,59.638,268.403.126L466.886,512L512,466.928ZM65.745,225.121c0-88.022,71.356-159.377,159.377-159.377s159.377,71.356,159.377,159.377-71.356,159.377-159.377,159.377c-87.983-.093-159.284-71.394-159.377-159.377Zm254.45-21.781c0,55.081-95.626,122.72-95.626,122.72s-95.626-67.64-95.626-122.72c-1.251-27.702,20.118-51.208,47.813-52.594c27.701,1.376,49.076,24.888,47.813,52.594-1.251-27.702,20.118-51.208,47.813-52.594c27.701,1.375,49.076,24.888,47.813,52.594Z" fill="url(#e7ZXJQjxcGC2-fill)"/></svg>
